{"title":"Lets.Be.Cops(2014)1080p.BluRay.H264.AAC.Raven","uid":11291190,"size":1565062982,"categoryP":"video","categoryS":"hd___movies","magnet":"?xt=urn:btih:4a153f377cb4a90d2b527b48ba038a5be3ee1ad0&amp;dn=Lets.Be.Cops%282014%291080p.BluRay.H264.AAC.Raven&amp;tr=udp%3A%2F%2Ftracker.openbittorrent.com%3A80&amp;tr=udp%3A%2F%2Fopen.demonii.com%3A1337&amp;tr=udp%3A%2F%2Ftracker.coppersurfer.tk%3A6969&amp;tr=udp%3A%2F%2Fexodus.desync.com%3A6969","seeders":4,"leechers":0,"uploader":"Raven1969","files":-1,"time":1414330110,"description":" _____________________________________________________________\n|$***********************************************************$|\n|* &quot;?$$$$$$N    &quot;$$$$$$&quot; &quot;$$$$&quot;  &quot;$$$&quot;$$$$$$$$$$&quot;&quot;$$$  &quot;$$$&quot; *|\n|* &quot;$$$&quot;&quot;&quot;$$k. &quot;$$$&quot;&quot;$$$&quot; &quot;$$$   .$$&quot;&quot;$$$&quot;&quot;&quot;&quot;$$$&quot;&quot;$$$_ '$$$&quot; *|\n|* &quot;$$$  &quot;$$F'&quot;$$&quot;    *$$&quot;&quot;$$$   .$$&quot;&quot;$$$&quot;       &quot;$$$$ '$$$&quot; *|\n|* &quot;$$$__&quot;$$&quot; &quot;$$&quot;____*$$&quot;&quot;$$$   .$$&quot;&quot;$$$$__*$$$&quot;&quot;$$$$$_$$$&quot; *|\n|* &quot;$$$**#$'  &quot;$$$$$$$$$$&quot;&quot;$$$   _$$&quot;&quot;$$$$$$$$$$&quot;&quot;$$$$$$$$$&quot; *| \n|* &quot;$$$&quot;&quot;&quot;$$. &quot;$$$&quot;&quot;&quot;&quot;$$$&quot;&quot;$$$_ .$$$&quot;&quot;$$$        &quot;$$$ '$$$$&quot; *|\n|* &quot;$$$   &quot;$$.&quot;$$&quot;    &quot;$$&quot;&quot;$$$$_.$$$&quot;&quot;$$$&quot;___*$$&quot;&quot;$$$  '$$$&quot; *|\n|* &quot;$$$    $$$&quot;$$$    $$$&quot;  &quot;$$$$$&quot;  &quot;$$$$$$$$$$&quot;&quot;$$$   $$$&quot; *|\n|* &quot;&quot;&quot;&quot;    &quot;&quot;&quot;&quot;&quot;&quot;&quot;    &quot;&quot;&quot;&quot;    &quot;&quot;&quot;    &quot;&quot;&quot;&quot;&quot;&quot;&quot;&quot;&quot;&quot;&quot;  &quot;&quot;&quot;   &quot;&quot;&quot;&quot; *|\n|$*************************(PRESENTS)************************$|\n\n      Lets.Be.Cops(2014)1080p.BluRay.H264.AAC.Raven.mp4\n\nEnglish, Spanish, Indonesian, Danish, French, Hebrew, Arabic and Swedish subs included.\n\n\n\nIMDB Rating:  6.8\n\nScreen image:\n &lt;a href=&quot;\nhttp://i.imgur.com/82xpVUC.jpg&quot; rel=&quot;nofollow&quot; target=&quot;_NEW&quot;&gt;\nhttp://i.imgur.com/82xpVUC.jpg&lt;/a&gt;\n\n\nTwo struggling pals dress as police officers for a costume party and become neighborhood sensations. But when these newly-minted &quot;heroes&quot; get tangled in a real life web of mobsters and dirty detectives, they must put their fake badges on the line.\n\nIt's the ultimate buddy cop movie except for one thing: they're not cops. When two struggling pals dress as police officers for a costume party, they become neighborhood sensations. But when these newly-minted &quot;heroes&quot; get tangled in a real life web of mobsters and dirty detectives, they must put their fake badges on the line. \n\n\n\nGeneral\nFormat                                   : MPEG-4\nFormat profile                           : Base Media\nCodec ID                                 : isom\nFile size                                : 1.46 GiB\nDuration                                 : 1h 44mn\nOverall bit rate mode                    : Variable\nOverall bit rate                         : 1 995 Kbps\nEncoded date                             : UTC 2014-10-26 01:59:46\nTagged date                              : UTC 2014-10-26 01:59:46\n\nVideo\nID                                       : 1\nFormat                                   : AVC\nFormat/Info                              : Advanced Video Codec\nFormat profile                           : &lt;a class=&quot;__cf_email__&quot; href=&quot;/cdn-cgi/l/email-protection&quot; data-cfemail=&quot;3d75545a557d7109130d&quot;&gt;[email&amp;#160;protected]&lt;/a&gt;&lt;script cf-hash='f9e31' type=&quot;text/javascript&quot;&gt;\n/* &lt;![CDATA[ */!function(){try{var t=&quot;currentScript&quot;in document?document.currentScript:function(){for(var t=document.getElementsByTagName(&quot;script&quot;),e=t.length;e--;)if(t[e].getAttribute(&quot;cf-hash&quot;))return t[e]}();if(t&amp;&amp;t.previousSibling){var e,r,n,i,c=t.previousSibling,a=c.getAttribute(&quot;data-cfemail&quot;);if(a){for(e=&quot;&quot;,r=parseInt(a.substr(0,2),16),n=2;a.length-n;n+=2)i=parseInt(a.substr(n,2),16)^r,e+=String.fromCharCode(i);e=document.createTextNode(e),c.parentNode.replaceChild(e,c)}}}catch(u){}}();/* ]]&gt; */&lt;/script&gt;\nFormat settings, CABAC                   : Yes\nFormat settings, ReFrames                : 4 frames\nCodec ID                                 : avc1\nCodec ID/Info                            : Advanced Video Coding\nDuration                                 : 1h 44mn\nBit rate                                 : 1 900 Kbps\nMaximum bit rate                         : 11.2 Mbps\nWidth                                    : 1 920 pixels\nHeight                                   : 1 036 pixels\nDisplay aspect ratio                     : 1.85:1\nFrame rate mode                          : Constant\nFrame rate                               : 23.976 fps\nColor space                              : YUV\nChroma subsampling                       : 4:2:0\nBit depth                                : 8 bits\nScan type                                : Progressive\nBits/(Pixel*Frame)                       : 0.040\nStream size                              : 1.39 GiB (95%)\nWriting library                          : x264 core 142 \nEncoded date                             : UTC 2014-10-26 01:59:46\nTagged date                              : UTC 2014-10-26 02:01:02\n\nAudio\nID                                       : 2\nFormat                                   : AAC\nFormat/Info                              : Advanced Audio Codec\nFormat profile                           : LC\nCodec ID                                 : 40\nDuration                                 : 1h 44mn\nBit rate mode                            : Variable\nBit rate                                 : 91.9 Kbps\nMaximum bit rate                         : 120 Kbps\nChannel(s)                               : 2 channels\nChannel positions                        : Front: L R\nSampling rate                            : 48.0 KHz\nCompression mode                         : Lossy\nStream size                              : 68.7 MiB (5%)\nEncoded date                             : UTC 2014-10-26 00:26:10\nTagged date                              : UTC 2014-10-26 02:01:02\n\nPLEASE  SEED FOR AS LONG AS POSSIBLE TO KEEP THE TORRENT ALIVE :-)","torrent":{"xt":"urn:btih:4a153f377cb4a90d2b527b48ba038a5be3ee1ad0","amp;dn":"Lets.Be.Cops%282014%291080p.BluRay.H264.AAC.Raven","amp;tr":["udp%3A%2F%2Ftracker.openbittorrent.com%3A80","udp%3A%2F%2Fopen.demonii.com%3A1337","udp%3A%2F%2Ftracker.coppersurfer.tk%3A6969","udp%3A%2F%2Fexodus.desync.com%3A6969"],"infoHash":"4a153f377cb4a90d2b527b48ba038a5be3ee1ad0","infoHashBuffer":{"type":"Buffer","data":[74,21,63,55,124,180,169,13,43,82,123,72,186,3,138,91,227,238,26,208]},"announce":[],"urlList":[]}}